#N canvas 626 23 470 200 12;
#N canvas 121 161 1682 1017 synth 0;
#X obj 58 155 mtof;
#X floatatom 58 179 10 0 0 0 - - -;
#X obj 58 202 phasor~;
#X obj 58 226 lop~ 6000;
#X obj 58 285 *~;
#X obj 153 159 metro 10000;
#X obj 153 203 bng 15 250 50 0 empty empty empty 17 7 0 10 -262144
-1 -1;
#X obj 154 274 line;
#X msg 154 246 0.3 500;
#X msg 220 243 0 1200;
#X obj 219 219 delay 3000;
#X obj 251 108 random 20000;
#X obj 310 137 random 3000;
#X obj 310 161 + 1000;
#X obj 251 137 + 10000;
#X floatatom 246 163 8 0 0 0 - - -;
#X floatatom 311 186 8 0 0 0 - - -;
#X obj 427 154 mtof;
#X floatatom 427 178 10 0 0 0 - - -;
#X obj 427 225 lop~ 6000;
#X obj 427 284 *~;
#X obj 522 158 metro 10000;
#X obj 522 202 bng 15 250 50 0 empty empty empty 17 7 0 10 -262144
-1 -1;
#X obj 523 273 line;
#X msg 523 245 0.3 500;
#X msg 589 242 0 1200;
#X obj 588 218 delay 3000;
#X obj 620 107 random 20000;
#X obj 679 136 random 3000;
#X obj 679 160 + 1000;
#X obj 620 136 + 10000;
#X floatatom 615 162 8 0 0 0 - - -;
#X floatatom 680 185 8 0 0 0 - - -;
#X floatatom 784 121 5 0 0 0 - note3 -;
#X obj 784 144 mtof;
#X floatatom 784 168 10 0 0 0 - - -;
#X obj 784 191 phasor~;
#X obj 784 215 lop~ 6000;
#X obj 784 274 *~;
#X obj 879 148 metro 10000;
#X obj 879 192 bng 15 250 50 0 empty empty empty 17 7 0 10 -262144
-1 -1;
#X obj 880 263 line;
#X msg 880 235 0.3 500;
#X msg 946 232 0 1200;
#X obj 945 208 delay 3000;
#X obj 977 97 random 20000;
#X obj 1036 126 random 3000;
#X obj 1036 150 + 1000;
#X obj 977 126 + 10000;
#X floatatom 972 152 8 0 0 0 - - -;
#X floatatom 1037 175 8 0 0 0 - - -;
#X floatatom 17 375 5 0 0 0 - note4 -;
#X obj 17 398 mtof;
#X floatatom 17 422 10 0 0 0 - - -;
#X obj 17 445 phasor~;
#X obj 17 469 lop~ 6000;
#X obj 17 528 *~;
#X obj 112 402 metro 10000;
#X obj 112 446 bng 15 250 50 0 empty empty empty 17 7 0 10 -262144
-1 -1;
#X obj 113 517 line;
#X msg 113 489 0.3 500;
#X msg 179 486 0 1200;
#X obj 178 462 delay 3000;
#X obj 210 351 random 20000;
#X obj 269 380 random 3000;
#X obj 269 404 + 1000;
#X obj 210 380 + 10000;
#X floatatom 205 406 8 0 0 0 - - -;
#X floatatom 270 429 8 0 0 0 - - -;
#X floatatom 386 374 5 0 0 0 - note5 -;
#X obj 386 397 mtof;
#X floatatom 386 421 10 0 0 0 - - -;
#X obj 386 468 lop~ 6000;
#X obj 386 527 *~;
#X obj 481 401 metro 10000;
#X obj 481 445 bng 15 250 50 0 empty empty empty 17 7 0 10 -262144
-1 -1;
#X obj 482 516 line;
#X msg 482 488 0.3 500;
#X msg 548 485 0 1200;
#X obj 547 461 delay 3000;
#X obj 579 350 random 20000;
#X obj 638 379 random 3000;
#X obj 638 403 + 1000;
#X obj 579 379 + 10000;
#X floatatom 574 405 8 0 0 0 - - -;
#X floatatom 639 428 8 0 0 0 - - -;
#X floatatom 743 364 5 0 0 0 - note6 -;
#X obj 743 387 mtof, f 7;
#X floatatom 743 411 10 0 0 0 - - -;
#X obj 743 458 lop~ 6000;
#X obj 743 517 *~;
#X obj 838 391 metro 10000;
#X obj 838 435 bng 15 250 50 0 empty empty empty 17 7 0 10 -262144
-1 -1;
#X obj 839 506 line;
#X msg 839 478 0.3 500;
#X msg 905 475 0 1200;
#X obj 904 451 delay 3000;
#X obj 936 340 random 20000;
#X obj 995 369 random 3000;
#X obj 995 393 + 1000;
#X obj 936 369 + 10000;
#X floatatom 931 395 8 0 0 0 - - -;
#X floatatom 996 418 8 0 0 0 - - -;
#X floatatom 57 113 5 0 0 0 - note1 -;
#X floatatom 425 128 5 0 0 0 - note2 -;
#X obj 386 444 phasor~;
#X obj 743 434 phasor~;
#X obj 427 201 phasor~;
#X msg 303 654 set 0.5;
#N canvas 0 23 961 397 presets 0;
#X msg 56 198 \; note1 35 \; note2 56 \; note3 60 \; note4 62 \; note5
80 \; note6 96 \;;
#X obj 59 118 loadbang;
#X msg 141 198 \; note1 37 \; note2 40 \; note3 42 \; note4 46 \; note5
50 \; note6 56 \;;
#X msg 237 196 \; note1 100 \; note2 105 \; note3 109 \; note4 110
\; note5 120 \; note6 124 \;;
#X msg 329 204 \; note1 35 \; note2 36 \; note3 37 \; note4 38 \; note5
39 \; note6 40 \;;
#X msg 415 204 \; note1 10 \; note2 20 \; note3 30 \; note4 40 \; note5
50 \; note6 60 \;;
#X msg 502 203 \; note1 50 \; note2 60 \; note3 65 \; note4 80 \; note5
94 \; note6 110 \;;
#X obj 124 48 inlet;
#X msg 595 202 \; note1 32 \; note2 43 \; note3 45 \; note4 68 \; note5
94 \; note6 110 \;;
#X obj 134 105 sel 0 1 2 3 4 5 6 7;
#X msg 688 200 \; note1 50 \; note2 70 \; note3 90 \; note4 110 \;
note5 120 \; note6 30 \;;
#X connect 1 0 0 0;
#X connect 7 0 9 0;
#X connect 9 0 0 0;
#X connect 9 1 2 0;
#X connect 9 2 3 0;
#X connect 9 3 4 0;
#X connect 9 4 5 0;
#X connect 9 5 6 0;
#X connect 9 6 8 0;
#X connect 9 7 10 0;
#X restore 48 761 pd presets;
#X obj 135 655 random 3000;
#X obj 46 654 random 3000;
#X obj 46 624 loadbang;
#X obj 165 755 random 8;
#X obj 827 718 *~ 0.6;
#X obj 654 717 *~ 0.6;
#X obj 654 741 lop~ 6000;
#X obj 827 742 lop~ 4000;
#X floatatom 722 627 5 0 0 0 - - -;
#X obj 654 693 delread~ \$0-bufDel 800;
#X obj 827 694 delread~ \$0-bufDel 600;
#X obj 827 666 delwrite~ \$0-bufDel 3000;
#X floatatom 653 625 5 0 0 0 - - -;
#X obj 656 800 linearPanner;
#X obj 827 797 linearPanner;
#X obj 1030 659 *~ 0.6;
#X obj 1028 875 dac~ 1 2;
#X obj 272 574 s~ L;
#X obj 1031 634 r~ L;
#X floatatom 852 626 5 0 0 0 - - -;
#X floatatom 960 622 5 0 0 0 - - -;
#X obj 135 57 r startStop-s;
#X obj 253 58 r random-s;
#X obj 620 81 r random-s;
#X obj 979 31 r random-s;
#X obj 936 314 r random-s;
#X obj 579 324 r random-s;
#X obj 210 325 r random-s;
#X obj 46 683 s leftDelay-r;
#X obj 170 683 s rightDelay-r;
#X obj 303 684 s leftPan-r;
#X obj 408 685 s rightPan-r;
#X obj 49 736 r preset-s;
#X obj 165 732 r randomPreset-s;
#X obj 165 780 s preset-r;
#X obj 652 576 r leftDelay-s;
#X obj 721 600 r rightDelay-s;
#X obj 852 599 r leftPan-s;
#X obj 959 598 r rightPan-s;
#X connect 0 0 1 0;
#X connect 1 0 2 0;
#X connect 2 0 3 0;
#X connect 3 0 4 0;
#X connect 4 0 127 0;
#X connect 5 0 6 0;
#X connect 6 0 8 0;
#X connect 6 0 10 0;
#X connect 7 0 4 1;
#X connect 8 0 7 0;
#X connect 9 0 7 0;
#X connect 10 0 9 0;
#X connect 11 0 14 0;
#X connect 12 0 13 0;
#X connect 13 0 16 0;
#X connect 13 0 10 1;
#X connect 14 0 5 1;
#X connect 14 0 15 0;
#X connect 17 0 18 0;
#X connect 18 0 107 0;
#X connect 19 0 20 0;
#X connect 20 0 127 0;
#X connect 21 0 22 0;
#X connect 22 0 24 0;
#X connect 22 0 26 0;
#X connect 23 0 20 1;
#X connect 24 0 23 0;
#X connect 25 0 23 0;
#X connect 26 0 25 0;
#X connect 27 0 30 0;
#X connect 28 0 29 0;
#X connect 29 0 32 0;
#X connect 29 0 26 1;
#X connect 30 0 21 1;
#X connect 30 0 31 0;
#X connect 33 0 34 0;
#X connect 34 0 35 0;
#X connect 35 0 36 0;
#X connect 36 0 37 0;
#X connect 37 0 38 0;
#X connect 38 0 127 0;
#X connect 39 0 40 0;
#X connect 40 0 42 0;
#X connect 40 0 44 0;
#X connect 41 0 38 1;
#X connect 42 0 41 0;
#X connect 43 0 41 0;
#X connect 44 0 43 0;
#X connect 45 0 48 0;
#X connect 46 0 47 0;
#X connect 47 0 50 0;
#X connect 47 0 44 1;
#X connect 48 0 39 1;
#X connect 48 0 49 0;
#X connect 51 0 52 0;
#X connect 52 0 53 0;
#X connect 53 0 54 0;
#X connect 54 0 55 0;
#X connect 55 0 56 0;
#X connect 56 0 127 0;
#X connect 57 0 58 0;
#X connect 58 0 60 0;
#X connect 58 0 62 0;
#X connect 59 0 56 1;
#X connect 60 0 59 0;
#X connect 61 0 59 0;
#X connect 62 0 61 0;
#X connect 63 0 66 0;
#X connect 64 0 65 0;
#X connect 65 0 68 0;
#X connect 65 0 62 1;
#X connect 66 0 57 1;
#X connect 66 0 67 0;
#X connect 69 0 70 0;
#X connect 70 0 71 0;
#X connect 71 0 105 0;
#X connect 72 0 73 0;
#X connect 73 0 127 0;
#X connect 74 0 75 0;
#X connect 75 0 77 0;
#X connect 75 0 79 0;
#X connect 76 0 73 1;
#X connect 77 0 76 0;
#X connect 78 0 76 0;
#X connect 79 0 78 0;
#X connect 80 0 83 0;
#X connect 81 0 82 0;
#X connect 82 0 85 0;
#X connect 82 0 79 1;
#X connect 83 0 74 1;
#X connect 83 0 84 0;
#X connect 86 0 87 0;
#X connect 87 0 88 0;
#X connect 88 0 106 0;
#X connect 89 0 90 0;
#X connect 90 0 127 0;
#X connect 91 0 92 0;
#X connect 92 0 94 0;
#X connect 92 0 96 0;
#X connect 93 0 90 1;
#X connect 94 0 93 0;
#X connect 95 0 93 0;
#X connect 96 0 95 0;
#X connect 97 0 100 0;
#X connect 98 0 99 0;
#X connect 99 0 102 0;
#X connect 99 0 96 1;
#X connect 100 0 91 1;
#X connect 100 0 101 0;
#X connect 103 0 0 0;
#X connect 104 0 17 0;
#X connect 105 0 72 0;
#X connect 106 0 89 0;
#X connect 107 0 19 0;
#X connect 108 0 140 0;
#X connect 108 0 141 0;
#X connect 110 0 139 0;
#X connect 111 0 138 0;
#X connect 112 0 111 0;
#X connect 112 0 110 0;
#X connect 112 0 108 0;
#X connect 113 0 144 0;
#X connect 114 0 117 0;
#X connect 115 0 116 0;
#X connect 116 0 123 0;
#X connect 117 0 124 0;
#X connect 118 0 120 0;
#X connect 119 0 115 0;
#X connect 120 0 114 0;
#X connect 122 0 119 0;
#X connect 123 0 126 0;
#X connect 123 1 126 1;
#X connect 124 0 126 0;
#X connect 124 1 126 1;
#X connect 125 0 126 1;
#X connect 125 0 126 0;
#X connect 128 0 121 0;
#X connect 128 0 125 0;
#X connect 129 0 123 1;
#X connect 130 0 124 1;
#X connect 131 0 5 0;
#X connect 131 0 57 0;
#X connect 131 0 21 0;
#X connect 131 0 74 0;
#X connect 131 0 39 0;
#X connect 131 0 91 0;
#X connect 132 0 11 0;
#X connect 132 0 12 0;
#X connect 133 0 27 0;
#X connect 133 0 28 0;
#X connect 134 0 45 0;
#X connect 134 0 46 0;
#X connect 135 0 97 0;
#X connect 135 0 98 0;
#X connect 136 0 80 0;
#X connect 136 0 81 0;
#X connect 137 0 63 0;
#X connect 137 0 64 0;
#X connect 142 0 109 0;
#X connect 143 0 113 0;
#X connect 145 0 122 0;
#X connect 146 0 118 0;
#X connect 147 0 129 0;
#X connect 148 0 130 0;
#X restore 76 147 pd synth;
#X obj 73 12 cnv 15 320 120 \$0-canvas-s $-canvas-r empty 20 12 0 14
-4034 -66577 0;
#X obj 79 42 tgl 15 1 startStop-s startStop-r startStop 17 7 0 10 -262144
-1 -1 0 1;
#X obj 160 42 bng 15 250 50 1 random-s random-r randomize 17 7 0 10
-262144 -1 -1;
#X obj 84 102 hsl 128 15 0 1 0 1 leftPan-s leftPan-r pannerLeft -2
-8 0 10 -262144 -1 -1 6350 1;
#X obj 227 102 hsl 128 15 0 1 0 1 rightPan-s rightPan-r pannerRight
-2 -8 0 10 -262144 -1 -1 6350 1;
#X obj 238 45 hradio 15 1 1 8 preset-s preset-r Presets 0 -8 0 10 -262144
-1 -1 1;
#X obj 280 18 bng 15 250 50 1 randomPreset-s randomPreset-r randomPreset
17 7 0 10 -262144 -1 -1;
#X obj 227 73 hsl 128 15 0 3000 0 1 rightDelay-s rightDelay-r rightDelay
-2 -8 0 10 -262144 -1 -1 8039 1;
#X obj 82 73 hsl 128 15 0 3000 0 1 leftDelay-s leftDelay-r leftDelay
-2 -8 0 10 -262144 -1 -1 10164 1;
